<svg width="24" height="24" viewBox="0 0 24 24" fill="none" xmlns="http://www.w3.org/2000/svg">
<path d="M4 20C3.45 20 2.97933 19.8043 2.588 19.413C2.19667 19.0217 2.00067 18.5507 2 18V5.99999C2 5.44999 2.196 4.97932 2.588 4.58799C2.98 4.19665 3.45067 4.00065 4 3.99999L20 20H4ZM21.775 18.9L6.85 3.99999H8.5L10.175 7.32499L10.85 7.99999H13.5L11.5 3.99999H14L16 7.99999H19L17 3.99999H20C20.55 3.99999 21.021 4.19599 21.413 4.58799C21.805 4.97999 22.0007 5.45065 22 5.99999V18C22 18.1667 21.9833 18.325 21.95 18.475C21.9167 18.625 21.8583 18.7667 21.775 18.9ZM19.775 22.625L1.375 4.22499L2.8 2.79999L21.2 21.2L19.775 22.625Z" fill="black"/>
</svg>
